<svg width="40" height="40" viewBox="0 0 40 40" xmlns="http://www.w3.org/2000/svg" role="img" aria-label="Newdot plugin icon dark">
  <defs>
    <linearGradient id="bg" x1="4" y1="4" x2="36" y2="36" gradientUnits="userSpaceOnUse">
      <stop offset="0" stop-color="#0891B2"/>
      <stop offset="1" stop-color="#1D4ED8"/>
    </linearGradient>
  </defs>

  <rect x="2" y="2" width="36" height="36" rx="8" fill="url(#bg)"/>
  <path d="M8 10h7l2 2h15a2 2 0 0 1 2 2v16a2 2 0 0 1-2 2H8a2 2 0 0 1-2-2V12a2 2 0 0 1 2-2z" fill="#FFFFFF" fill-opacity="0.18"/>

  <rect x="19.25" y="10" width="1.5" height="22" rx="0.75" fill="#FFFFFF" fill-opacity="0.42"/>

  <circle cx="9" cy="15" r="1.3" fill="#F8FAFC"/>
  <circle cx="9" cy="20" r="1.3" fill="#F8FAFC"/>
  <circle cx="9" cy="25" r="1.3" fill="#F8FAFC"/>
  <rect x="12" y="14.2" width="5.8" height="1.6" rx="0.8" fill="#F8FAFC"/>
  <rect x="12" y="19.2" width="5.8" height="1.6" rx="0.8" fill="#F8FAFC"/>
  <rect x="12" y="24.2" width="5.8" height="1.6" rx="0.8" fill="#F8FAFC"/>

  <circle cx="25" cy="15" r="1.15" fill="#FFFFFF"/>
  <circle cx="25" cy="19" r="1.15" fill="#FFFFFF"/>
  <rect x="22.7" y="23" width="11.3" height="4.8" rx="1.5" fill="#020617" fill-opacity="0.34"/>
  <rect x="24" y="24.6" width="5.6" height="1.7" rx="0.85" fill="#FFFFFF" fill-opacity="0.92"/>
  <circle cx="32" cy="25.45" r="1.35" fill="#FDE047"/>

  <path d="M28.2 9.8l1.8 3.4 1.8-3.4h2.1l-3.1 5.6h-1.6l-3.1-5.6h2.1z" fill="#FFFFFF"/>
</svg>
